<svg width="560" height="110" viewBox="0 0 560 110" fill="none" xmlns="http://www.w3.org/2000/svg">
<g clip-path="url(#clip0_6_27)">
<path d="M136.272 38.064H148.525C158.721 38.064 164.465 44.1502 164.465 55C164.465 65.8498 158.721 71.936 148.525 71.936H136.272V38.064ZM147.81 65.9455C153.791 65.9455 157.19 62.0191 157.19 55C157.19 47.9809 153.791 44.0545 147.81 44.0545H143.357V65.9455H147.81Z" fill="#171717"/>
<path d="M191.046 38.064H198.131V71.9326H191.046V38.064Z" fill="#171717"/>
<path d="M226.811 38.064H235.379L243.517 59.0734H243.901L252.179 38.064H260.603L261.56 71.9326H254.476L253.901 49.8468H253.518L245.953 68.3513H240.785L233.317 49.8468H232.937L232.267 71.9326H225.804L226.811 38.064Z" fill="#171717"/>
<path d="M309.876 65.9455V71.9326H289.054V38.064H309.543V44.0545H296.139V51.9074H307.677V57.8466H296.139V65.9455H309.876Z" fill="#171717"/>
<path d="M337.077 38.064H344.545L356.942 59.2682H357.326V38.064H364.41V71.9326H357.565L344.545 49.8468H344.161V71.9326H337.077V38.064Z" fill="#171717"/>
<path d="M390.367 70.2138L391.994 64.0797C394.433 65.5014 397.786 66.5813 401.471 66.5813C404.631 66.5813 406.737 65.2553 406.737 62.8496C406.737 60.1021 403.915 58.8753 400.705 57.4024C396.35 55.3418 391.038 52.7891 391.038 46.7507C391.038 40.6645 396.257 37.425 402.765 37.425C406.211 37.425 410.616 38.3066 412.913 39.5847L411.24 45.5718C409.037 44.345 405.448 43.4121 403.005 43.4121C400.086 43.4121 398.313 44.6388 398.313 46.7986C398.313 49.3513 401.135 50.725 404.344 52.2457C408.7 54.2585 413.965 56.613 413.965 62.8461C413.965 68.6863 409.42 72.5648 401.712 72.5648C397.976 72.5717 393.094 71.6866 390.367 70.2138Z" fill="#171717"/>
<path d="M439.873 38.064H446.958V71.9326H439.873V38.064Z" fill="#171717"/>
<path d="M473.579 55.0479C473.579 43.7572 479.321 37.4284 489.426 37.4284C499.716 37.4284 505.555 43.7606 505.555 55.0479C505.555 66.2872 499.713 72.5716 489.426 72.5716C479.325 72.5716 473.579 66.2907 473.579 55.0479ZM498.23 55.0479C498.23 47.7349 495.118 43.7094 489.375 43.7094C483.823 43.7094 480.808 47.7315 480.808 55.0479C480.808 62.3129 483.823 66.2872 489.375 66.2872C495.121 66.2907 498.23 62.3129 498.23 55.0479Z" fill="#171717"/>
<path d="M532.086 38.064H539.554L551.951 59.2682H552.335V38.064H559.42V71.9326H552.574L539.554 49.8468H539.171V71.9326H532.086V38.064Z" fill="#171717"/>
<path d="M53.4185 109.447C24.1403 109.447 0.320709 85.0224 0.320709 55C0.320709 24.9777 24.1403 0.552841 53.4185 0.552841C82.6967 0.552841 106.512 24.9777 106.512 55C106.512 67.0532 102.75 78.4743 95.6259 88.0311C85.4868 101.639 70.1007 109.447 53.4185 109.447ZM53.4185 7.0686C27.6414 7.0686 6.67498 28.5724 6.67498 55C6.67498 81.4276 27.6459 102.936 53.4185 102.936C68.1071 102.936 81.6528 96.065 90.5856 84.081C96.8499 75.6686 100.162 65.6135 100.162 55C100.162 28.5678 79.1911 7.0686 53.4185 7.0686Z" fill="url(#paint0_linear_6_27)"/>
<path d="M53.4184 95.9681C31.3899 95.9681 13.4657 77.5883 13.4657 55C13.4657 32.4117 31.3899 14.032 53.4184 14.032C75.4469 14.032 93.3711 32.4117 93.3711 55C93.3711 56.7997 91.9491 58.2579 90.194 58.2579C88.4389 58.2579 87.0168 56.7997 87.0168 55C87.0168 36.0019 71.9457 20.5432 53.4139 20.5432C34.8821 20.5432 19.811 35.9972 19.811 55C19.811 74.0027 34.8821 89.4569 53.4139 89.4569C55.169 89.4569 56.591 90.9151 56.591 92.7148C56.591 94.5098 55.169 95.9681 53.4184 95.9681Z" fill="url(#paint1_linear_6_27)"/>
<path d="M53.4184 82.489C39.1123 82.489 27.3533 71.0218 26.6467 56.3844C26.6243 55.9276 26.6153 55.4615 26.6153 55.0046C26.6153 53.205 28.0373 51.7468 29.7924 51.7468C31.5475 51.7468 32.9695 53.205 32.9695 55.0046C32.9695 55.3554 32.9785 55.7107 32.9965 56.0614C33.5365 67.2286 42.51 75.9778 53.4274 75.9778C59.8537 75.9778 65.7849 72.9692 69.6911 67.727C72.4318 64.0492 73.8808 59.6469 73.8808 55.0046C73.8808 48.0274 70.5102 41.5209 64.8579 37.6078C61.4783 35.2635 57.5226 34.0268 53.4229 34.0268C51.6678 34.0268 50.2458 32.5686 50.2458 30.769C50.2458 28.9693 51.6678 27.5111 53.4229 27.5111C58.7916 27.5111 63.9759 29.1354 68.4131 32.2087C75.8114 37.3354 80.2306 45.854 80.2306 55C80.2306 61.0866 78.3315 66.8548 74.7358 71.677C69.6056 78.5481 61.8383 82.489 53.4184 82.489Z" fill="url(#paint2_linear_6_27)"/>
<path d="M53.4185 69.0098C51.6634 69.0098 50.2414 67.5516 50.2414 65.7519C50.2414 63.9523 51.6634 62.494 53.4185 62.494C55.5741 62.494 57.6127 61.525 59.0078 59.8315C60.1193 58.484 60.7314 56.7674 60.7314 54.9954C60.7314 50.8607 57.4507 47.4968 53.4185 47.4968C49.3863 47.4968 46.1057 50.8607 46.1057 54.9954C46.1057 56.7951 44.6836 58.2532 42.9286 58.2532C41.1735 58.2532 39.7515 56.7951 39.7515 54.9954C39.7515 47.2706 45.8808 40.9856 53.4141 40.9856C60.9474 40.9856 67.0766 47.2706 67.0766 54.9954C67.0766 58.2994 65.9335 61.5112 63.8544 64.0353C61.2534 67.1962 57.4462 69.0098 53.4185 69.0098Z" fill="url(#paint3_linear_6_27)"/>
</g>
<defs>
<linearGradient id="paint0_linear_6_27" x1="-7.09054" y1="0.552625" x2="135.474" y2="1.34839" gradientUnits="userSpaceOnUse">
<stop stop-color="#BE53FF"/>
<stop offset="0.0729167" stop-color="#B24FFB"/>
<stop offset="0.9999" stop-color="#1B23C7"/>
<stop offset="1" stop-color="#1B23C7"/>
</linearGradient>
<linearGradient id="paint1_linear_6_27" x1="7.88895" y1="14.0318" x2="115.164" y2="14.6306" gradientUnits="userSpaceOnUse">
<stop stop-color="#BE53FF"/>
<stop offset="0.0729167" stop-color="#B24FFB"/>
<stop offset="0.9999" stop-color="#1B23C7"/>
<stop offset="1" stop-color="#1B23C7"/>
</linearGradient>
<linearGradient id="paint2_linear_6_27" x1="22.8734" y1="27.511" x2="94.8532" y2="27.9127" gradientUnits="userSpaceOnUse">
<stop stop-color="#BE53FF"/>
<stop offset="0.0729167" stop-color="#B24FFB"/>
<stop offset="0.9999" stop-color="#1B23C7"/>
<stop offset="1" stop-color="#1B23C7"/>
</linearGradient>
<linearGradient id="paint3_linear_6_27" x1="37.8444" y1="40.9855" x2="74.5291" y2="41.1902" gradientUnits="userSpaceOnUse">
<stop stop-color="#BE53FF"/>
<stop offset="0.0729167" stop-color="#B24FFB"/>
<stop offset="0.9999" stop-color="#1B23C7"/>
<stop offset="1" stop-color="#1B23C7"/>
</linearGradient>
<clipPath id="clip0_6_27">
<rect width="560" height="110" fill="white"/>
</clipPath>
</defs>
</svg>
