<svg width="106" height="107" viewBox="0 0 106 107" fill="none" xmlns="http://www.w3.org/2000/svg">
<path d="M52.8461 106.462C23.8816 106.462 0.317261 82.7035 0.317261 53.5C0.317261 24.2964 23.8816 0.53772 52.8461 0.53772C81.8107 0.53772 105.371 24.2964 105.371 53.5C105.371 65.2245 101.649 76.334 94.6013 85.6301C84.5709 98.8673 69.3496 106.462 52.8461 106.462ZM52.8461 6.87577C27.3452 6.87577 6.60345 27.7931 6.60345 53.5C6.60345 79.2068 27.3497 100.129 52.8461 100.129C67.3774 100.129 80.7779 93.445 89.615 81.7878C95.8122 73.6049 99.0888 63.824 99.0888 53.5C99.0888 27.7887 78.3426 6.87577 52.8461 6.87577Z" fill="url(#paint0_linear_11_881)"/>
<path d="M52.8461 93.3508C31.0537 93.3508 13.3215 75.4723 13.3215 53.5C13.3215 31.5278 31.0537 13.6493 52.8461 13.6493C74.6385 13.6493 92.3708 31.5278 92.3708 53.5C92.3708 55.2506 90.9639 56.6691 89.2277 56.6691C87.4914 56.6691 86.0846 55.2506 86.0846 53.5C86.0846 35.02 71.1749 19.9829 52.8417 19.9829C34.5084 19.9829 19.5987 35.0155 19.5987 53.5C19.5987 71.9845 34.5084 87.0172 52.8417 87.0172C54.5779 87.0172 55.9848 88.4356 55.9848 90.1862C55.9848 91.9323 54.5779 93.3508 52.8461 93.3508Z" fill="url(#paint1_linear_11_881)"/>
<path d="M52.8461 80.2392C38.6933 80.2392 27.0602 69.0848 26.3613 54.8466C26.339 54.4022 26.3301 53.9488 26.3301 53.5045C26.3301 51.7539 27.7369 50.3354 29.4732 50.3354C31.2095 50.3354 32.6163 51.7539 32.6163 53.5045C32.6163 53.8456 32.6252 54.1912 32.643 54.5324C33.1773 65.395 42.0545 73.9056 52.855 73.9056C59.2124 73.9056 65.0801 70.979 68.9445 65.8798C71.6557 62.3023 73.0892 58.0201 73.0892 53.5045C73.0892 46.7175 69.7547 40.3885 64.163 36.582C60.8196 34.3018 56.9063 33.0988 52.8505 33.0988C51.1143 33.0988 49.7075 31.6804 49.7075 29.9298C49.7075 28.1792 51.1143 26.7607 52.8505 26.7607C58.1618 26.7607 63.2904 28.3408 67.6801 31.3302C74.9991 36.3172 79.371 44.6034 79.371 53.5C79.371 59.4206 77.4922 65.0315 73.9351 69.7222C68.8599 76.4059 61.1757 80.2392 52.8461 80.2392Z" fill="url(#paint2_linear_11_881)"/>
<path d="M52.8462 67.1277C51.1099 67.1277 49.7031 65.7093 49.7031 63.9587C49.7031 62.2081 51.1099 60.7896 52.8462 60.7896C54.9787 60.7896 56.9954 59.847 58.3755 58.1997C59.4752 56.889 60.0806 55.2192 60.0806 53.4955C60.0806 49.4736 56.8351 46.2014 52.8462 46.2014C48.8572 46.2014 45.6117 49.4736 45.6117 53.4955C45.6117 55.2461 44.2049 56.6645 42.4686 56.6645C40.7324 56.6645 39.3255 55.2461 39.3255 53.4955C39.3255 45.9814 45.3891 39.8678 52.8417 39.8678C60.2943 39.8678 66.3579 45.9814 66.3579 53.4955C66.3579 56.7094 65.2271 59.8336 63.1703 62.2889C60.5971 65.3636 56.8307 67.1277 52.8462 67.1277Z" fill="url(#paint3_linear_11_881)"/>
<defs>
<linearGradient id="paint0_linear_11_881" x1="-7.01458" y1="0.53751" x2="134.022" y2="1.33816" gradientUnits="userSpaceOnUse">
<stop stop-color="#BE53FF"/>
<stop offset="0.0729167" stop-color="#B24FFB"/>
<stop offset="0.9999" stop-color="#1B23C7"/>
<stop offset="1" stop-color="#E1A4FB" stop-opacity="0"/>
<stop offset="1" stop-color="#1B23C7"/>
</linearGradient>
<linearGradient id="paint1_linear_11_881" x1="7.80448" y1="13.6491" x2="113.93" y2="14.2516" gradientUnits="userSpaceOnUse">
<stop stop-color="#BE53FF"/>
<stop offset="0.0729167" stop-color="#B24FFB"/>
<stop offset="0.9999" stop-color="#1B23C7"/>
<stop offset="1" stop-color="#E1A4FB" stop-opacity="0"/>
<stop offset="1" stop-color="#1B23C7"/>
</linearGradient>
<linearGradient id="paint2_linear_11_881" x1="22.6283" y1="26.7606" x2="93.8368" y2="27.1649" gradientUnits="userSpaceOnUse">
<stop stop-color="#BE53FF"/>
<stop offset="0.0729167" stop-color="#B24FFB"/>
<stop offset="0.9999" stop-color="#1B23C7"/>
<stop offset="1" stop-color="#E1A4FB" stop-opacity="0"/>
<stop offset="1" stop-color="#1B23C7"/>
</linearGradient>
<linearGradient id="paint3_linear_11_881" x1="37.4389" y1="39.8677" x2="73.7304" y2="40.0737" gradientUnits="userSpaceOnUse">
<stop stop-color="#BE53FF"/>
<stop offset="0.0729167" stop-color="#B24FFB"/>
<stop offset="0.9999" stop-color="#1B23C7"/>
<stop offset="1" stop-color="#E1A4FB" stop-opacity="0"/>
<stop offset="1" stop-color="#1B23C7"/>
</linearGradient>
</defs>
</svg>
