<svg width="200" height="60" viewBox="0 0 200 60" fill="none" xmlns="http://www.w3.org/2000/svg">
<path d="M198.673 52.9165C198.673 53.6717 198.526 54.4194 198.241 55.117C197.955 55.8146 197.536 56.4484 197.008 56.9821C196.481 57.5158 195.854 57.939 195.165 58.2274C194.475 58.5158 193.736 58.6639 192.99 58.6631H7.00973C5.50235 58.6647 4.05606 58.0602 2.98893 56.9826C1.9218 55.9049 1.32121 54.4424 1.31924 52.9165V7.08943C1.32121 5.56292 1.92156 4.09959 2.98848 3.02075C4.05539 1.94191 5.50167 1.33574 7.00973 1.33534H192.989C193.735 1.33534 194.474 1.48419 195.164 1.77338C195.854 2.06256 196.48 2.48643 197.008 3.02077C197.536 3.5551 197.954 4.18944 198.24 4.88755C198.525 5.58566 198.672 6.33386 198.672 7.08943L198.673 52.9165Z" fill="white"/>
<path d="M192.99 60H7.00972C5.1528 59.9996 3.37187 59.2536 2.05772 57.9256C0.743567 56.5976 0.00353321 54.7962 0 52.9166L0 7.09095C0.00274704 5.21039 0.742292 3.40771 2.0564 2.07837C3.37051 0.749034 5.15188 0.00158727 7.00972 0L192.989 0C194.846 0.00237927 196.627 0.75008 197.941 2.07925C199.255 3.40841 199.995 5.21063 199.999 7.09095V52.9166C200.001 56.8236 196.852 60 192.99 60V60Z" fill="#A6A6A6"/>
<path d="M198.673 52.9165C198.673 53.6717 198.526 54.4194 198.241 55.117C197.955 55.8146 197.536 56.4484 197.008 56.9821C196.481 57.5158 195.854 57.939 195.165 58.2274C194.475 58.5158 193.736 58.6639 192.99 58.6631H7.00973C5.50235 58.6647 4.05606 58.0602 2.98893 56.9826C1.9218 55.9049 1.32121 54.4424 1.31924 52.9165V7.08943C1.32121 5.56292 1.92156 4.09959 2.98848 3.02075C4.05539 1.94191 5.50167 1.33574 7.00973 1.33534H192.989C193.735 1.33534 194.474 1.48419 195.164 1.77338C195.854 2.06256 196.48 2.48643 197.008 3.02077C197.536 3.5551 197.954 4.18944 198.24 4.88755C198.525 5.58566 198.672 6.33386 198.672 7.08943L198.673 52.9165Z" fill="black"/>
<path d="M44.6582 29.6842C44.6152 24.8484 48.57 22.4957 48.7508 22.3862C46.5111 19.0808 43.0396 18.6292 41.8196 18.5931C38.904 18.2826 36.0758 20.3591 34.5905 20.3591C33.0757 20.3591 30.7885 18.6232 28.3235 18.6742C25.1514 18.7237 22.1838 20.5827 20.5563 23.4695C17.1974 29.3556 19.7025 38.0055 22.9205 42.7633C24.5303 45.0949 26.4113 47.6951 28.8734 47.6036C31.2821 47.5046 32.1818 46.0507 35.0886 46.0507C37.9687 46.0507 38.8136 47.6036 41.3246 47.5451C43.9097 47.5046 45.5372 45.2045 47.0906 42.8533C48.9509 40.1841 49.698 37.5524 49.7276 37.4173C49.6683 37.3963 44.7086 35.4788 44.6582 29.6842V29.6842ZM39.9149 15.4633C41.2104 13.8233 42.0968 11.5922 41.8508 9.32809C39.9757 9.41212 37.6307 10.641 36.2803 12.2449C35.0856 13.6583 34.0184 15.9749 34.2941 18.1535C36.4004 18.3126 38.5631 17.0777 39.9149 15.4633V15.4633Z" fill="white"/>
<path d="M192.99 0H93.3735L132.392 60H192.99C194.848 59.9984 196.629 59.2514 197.943 57.9227C199.257 56.594 199.996 54.7921 200 52.9121V7.09095C199.997 5.21051 199.257 3.40806 197.943 2.07881C196.629 0.749557 194.848 0.00198342 192.99 0V0Z" fill="url(#paint0_linear_1_3)"/>
<path d="M79.5467 47.269H76.1804L74.3365 41.4039H67.9271L66.1706 47.269H62.8932L69.2448 27.3015H73.167L79.5467 47.269V47.269ZM73.7806 38.9432L72.1131 33.7293C71.9367 33.1966 71.6046 31.9423 71.1184 29.9677H71.0591C70.8635 30.817 70.5507 32.0713 70.1223 33.7293L68.4829 38.9432H73.7806ZM95.8489 39.893C95.8489 42.3417 95.1922 44.2772 93.8774 45.6981C92.7005 46.9629 91.2375 47.5946 89.4928 47.5946C87.6088 47.5946 86.254 46.9149 85.4314 45.5525V53.1071H82.2711V37.6033C82.2711 36.0654 82.2311 34.4885 82.154 32.871H84.9333L85.1097 35.1532H85.169C86.2229 33.4337 87.8223 32.574 89.9686 32.574C91.6466 32.574 93.0473 33.2447 94.1679 34.5875C95.2871 35.9334 95.8489 37.7009 95.8489 39.893ZM92.6293 40.01C92.6293 38.6086 92.3181 37.4533 91.6925 36.5426C91.0092 35.5958 90.0917 35.1217 88.9414 35.1217C88.1617 35.1217 87.4532 35.3857 86.8203 35.9064C86.1858 36.4315 85.7708 37.1172 85.5766 37.9665C85.4899 38.284 85.4407 38.6109 85.4299 38.9402V41.3424C85.4299 42.3882 85.7471 43.2719 86.3815 43.9951C87.0159 44.7153 87.8401 45.0769 88.854 45.0769C90.0442 45.0769 90.9707 44.6103 91.6332 43.6845C92.2973 42.7558 92.6293 41.5314 92.6293 40.01V40.01ZM112.209 39.893C112.209 42.3417 111.552 44.2772 110.237 45.6981C109.059 46.9629 107.597 47.5946 105.851 47.5946C103.967 47.5946 102.613 46.9149 101.79 45.5525V53.1071H98.6296V37.6033C98.6296 36.0654 98.5896 34.4885 98.5125 32.871H101.292L101.468 35.1532H101.527C102.58 33.4337 104.179 32.574 106.327 32.574C108.004 32.574 109.404 33.2447 110.528 34.5875C111.646 35.9334 112.209 37.7009 112.209 39.893V39.893ZM108.988 40.01C108.988 38.6086 108.675 37.4533 108.05 36.5426C107.366 35.5958 106.452 35.1217 105.301 35.1217C104.522 35.1217 103.813 35.3857 103.177 35.9064C102.543 36.4315 102.129 37.1172 101.935 37.9665C101.839 38.3626 101.787 38.6851 101.787 38.9402V41.3424C101.787 42.3882 102.106 43.2719 102.737 43.9951C103.371 44.7138 104.196 45.0769 105.212 45.0769C106.404 45.0769 107.331 44.6103 107.992 43.6845C108.656 42.7558 108.988 41.5314 108.988 40.01V40.01ZM130.5 41.668C130.5 43.3679 129.913 44.7498 128.747 45.8166C127.463 46.9809 125.671 47.5646 123.373 47.5646C121.251 47.5646 119.549 47.1505 118.265 46.3207L118.996 43.6545C120.382 44.4857 121.904 44.8999 123.562 44.8999C124.753 44.8999 125.68 44.6268 126.341 44.0851C127.003 43.542 127.338 42.8158 127.338 41.9095C127.338 41.0978 127.061 40.4181 126.517 39.8645C125.97 39.3123 125.066 38.7977 123.796 38.325C120.342 37.0212 118.614 35.1142 118.614 32.6055C118.614 30.967 119.224 29.6257 120.443 28.5769C121.661 27.5296 123.277 27.0059 125.287 27.0059C127.082 27.0059 128.578 27.3225 129.765 27.9542L128.972 30.5619C127.854 29.9497 126.593 29.6437 125.182 29.6437C124.067 29.6437 123.193 29.9212 122.567 30.4734C122.041 30.967 121.774 31.5687 121.774 32.2829C121.774 33.0706 122.078 33.7248 122.683 34.2379C123.207 34.7106 124.165 35.2252 125.549 35.7773C127.248 36.4705 128.496 37.2778 129.295 38.205C130.1 39.1323 130.5 40.2891 130.5 41.668ZM140.975 35.2717H137.492V42.2621C137.492 44.0401 138.106 44.9269 139.336 44.9269C139.901 44.9269 140.369 44.8788 140.74 44.7783L140.827 47.2075C140.205 47.4431 139.385 47.5616 138.37 47.5616C137.122 47.5616 136.146 47.176 135.442 46.4048C134.741 45.6336 134.388 44.3417 134.388 42.5232V35.2657H132.313V32.865H134.388V30.2288L137.492 29.2806V32.865H140.975V35.2717V35.2717ZM156.661 39.9515C156.661 42.1646 156.035 43.9816 154.787 45.4025C153.482 46.8654 151.744 47.5946 149.579 47.5946C147.489 47.5946 145.827 46.8939 144.588 45.494C143.349 44.0911 142.729 42.3236 142.729 40.1916C142.729 37.9604 143.369 36.1329 144.646 34.7121C145.925 33.2897 147.647 32.5785 149.813 32.5785C151.9 32.5785 153.576 33.2807 154.845 34.682C156.058 36.0414 156.661 37.7969 156.661 39.9515ZM153.385 40.025C153.385 38.7062 153.104 37.5748 152.539 36.6281C151.876 35.4848 150.928 34.9131 149.699 34.9131C148.433 34.9131 147.462 35.4848 146.801 36.6281C146.235 37.5748 145.953 38.7257 145.953 40.085C145.953 41.4054 146.235 42.5397 146.801 43.4835C147.484 44.6268 148.437 45.1984 149.672 45.1984C150.88 45.1984 151.827 44.6148 152.512 43.455C153.093 42.4857 153.385 41.3469 153.385 40.025ZM166.938 35.6843C166.609 35.6243 166.276 35.5946 165.942 35.5958C164.83 35.5958 163.97 36.0189 163.365 36.8711C162.841 37.6214 162.577 38.5696 162.577 39.7144V47.269H159.417V37.4053C159.419 35.8939 159.389 34.3826 159.325 32.8725H162.077L162.193 35.6273H162.28C162.615 34.6805 163.14 33.9168 163.86 33.3452C164.52 32.8457 165.321 32.5752 166.145 32.574C166.437 32.574 166.701 32.595 166.935 32.6325L166.938 35.6843V35.6843ZM181.071 39.3888C181.079 39.8751 181.041 40.361 180.956 40.8397H171.475C171.511 42.2621 171.97 43.3514 172.851 44.1016C173.649 44.7708 174.683 45.1069 175.951 45.1069C177.355 45.1069 178.636 44.8819 179.788 44.4272L180.283 46.6463C178.937 47.2405 177.348 47.5361 175.514 47.5361C173.309 47.5361 171.577 46.8789 170.317 45.5675C169.06 44.2547 168.43 42.4902 168.43 40.2801C168.43 38.1105 169.016 36.3025 170.188 34.8606C171.416 33.3212 173.074 32.5515 175.161 32.5515C177.211 32.5515 178.763 33.3212 179.817 34.8606C180.652 36.0804 181.071 37.5928 181.071 39.3888V39.3888ZM178.058 38.5591C178.08 37.6093 177.872 36.7916 177.444 36.0999C176.897 35.2087 176.055 34.7646 174.927 34.7646C173.894 34.7646 173.052 35.1982 172.412 36.0684C171.886 36.7601 171.573 37.5913 171.476 38.5561L178.058 38.5591Z" fill="white"/>
<path d="M67.0155 20.2421C66.1365 20.2421 65.3761 20.1986 64.7432 20.125V10.4714C65.6284 10.333 66.523 10.2647 67.4187 10.2673C71.0429 10.2673 72.7119 12.0723 72.7119 15.0146C72.7119 18.4086 70.7405 20.2421 67.0155 20.2421ZM67.5462 11.5052C67.057 11.5052 66.6405 11.5352 66.2951 11.6072V18.9457C66.4819 18.9757 66.8406 18.9892 67.3446 18.9892C69.7192 18.9892 71.071 17.6208 71.071 15.0581C71.071 12.773 69.8481 11.5052 67.5462 11.5052V11.5052ZM77.9132 20.3156C75.8707 20.3156 74.547 18.7717 74.547 16.6756C74.547 14.491 75.8988 12.9336 78.0289 12.9336C80.0418 12.9336 81.3951 14.404 81.3951 16.56C81.3951 18.7717 80.0003 20.3156 77.9132 20.3156ZM77.9725 14.0829C76.8505 14.0829 76.1315 15.1452 76.1315 16.6306C76.1315 18.0875 76.8653 19.1498 77.9577 19.1498C79.0502 19.1498 79.7839 18.0139 79.7839 16.6006C79.7839 15.1602 79.065 14.0829 77.9725 14.0829ZM93.0429 13.0791L90.8565 20.155H89.4321L88.5264 17.0822C88.3012 16.3306 88.1137 15.5679 87.9646 14.7971H87.935C87.8208 15.5683 87.6044 16.341 87.3747 17.0822L86.4112 20.155H84.9719L82.9145 13.0791H84.5109L85.3024 16.443C85.4892 17.2442 85.6463 18.0004 85.7768 18.7146H85.8064C85.9205 18.119 86.1073 17.3748 86.3815 16.458L87.3747 13.0806H88.6405L89.5907 16.386C89.8204 17.1872 90.0072 17.9734 90.1525 18.7161H90.194C90.2948 17.9884 90.4534 17.2157 90.6683 16.386L91.5176 13.0806L93.0429 13.0791V13.0791ZM101.092 20.155H99.5383V16.0919C99.5383 14.8406 99.0639 14.2134 98.1286 14.2134C97.2081 14.2134 96.5752 15.0146 96.5752 15.9464V20.155H95.0218V15.1016C95.0218 14.476 95.0069 13.8053 94.964 13.0776H96.3306L96.4033 14.1699H96.4462C96.8642 13.4137 97.7121 12.9336 98.6622 12.9336C100.13 12.9336 101.093 14.0694 101.093 15.9179L101.092 20.155V20.155ZM105.376 20.155H103.821V9.8322H105.376V20.155ZM111.039 20.3156C108.998 20.3156 107.673 18.7717 107.673 16.6756C107.673 14.491 109.025 12.9336 111.153 12.9336C113.168 12.9336 114.52 14.404 114.52 16.56C114.521 18.7717 113.125 20.3156 111.039 20.3156ZM111.097 14.0829C109.975 14.0829 109.256 15.1452 109.256 16.6306C109.256 18.0875 109.991 19.1498 111.081 19.1498C112.175 19.1498 112.907 18.0139 112.907 16.6006C112.908 15.1602 112.191 14.0829 111.097 14.0829V14.0829ZM120.645 20.155L120.532 19.3403H120.49C120.016 19.996 119.324 20.3156 118.446 20.3156C117.194 20.3156 116.304 19.4273 116.304 18.233C116.304 16.4865 117.8 15.5833 120.39 15.5833V15.4527C120.39 14.521 119.902 14.0544 118.938 14.0544C118.249 14.0544 117.644 14.2299 117.112 14.5795L116.796 13.5457C117.443 13.1376 118.249 12.9336 119.196 12.9336C121.022 12.9336 121.944 13.9088 121.944 15.8609V18.4671C121.944 19.1813 121.976 19.7349 122.045 20.1565L120.645 20.155V20.155ZM120.431 16.6306C118.706 16.6306 117.84 17.0537 117.84 18.0575C117.84 18.8002 118.286 19.1633 118.906 19.1633C119.696 19.1633 120.431 18.5526 120.431 17.7229V16.6306V16.6306ZM129.488 20.155L129.415 19.0192H129.372C128.926 19.8775 128.176 20.3156 127.128 20.3156C125.443 20.3156 124.195 18.8152 124.195 16.7041C124.195 14.491 125.489 12.9321 127.255 12.9321C128.191 12.9321 128.853 13.2516 129.227 13.8938H129.258V9.8322H130.813V18.248C130.813 18.9322 130.829 19.5729 130.871 20.155H129.488ZM129.258 15.9914C129.258 15.0011 128.61 14.1564 127.622 14.1564C126.47 14.1564 125.766 15.1902 125.766 16.6456C125.766 18.0725 126.497 19.0492 127.59 19.0492C128.567 19.0492 129.258 18.1895 129.258 17.1707V15.9914ZM140.672 20.3156C138.631 20.3156 137.307 18.7717 137.307 16.6756C137.307 14.491 138.659 12.9336 140.787 12.9336C142.802 12.9336 144.154 14.404 144.154 16.56C144.155 18.7717 142.76 20.3156 140.672 20.3156ZM140.729 14.0829C139.609 14.0829 138.89 15.1452 138.89 16.6306C138.89 18.0875 139.624 19.1498 140.715 19.1498C141.809 19.1498 142.541 18.0139 142.541 16.6006C142.544 15.1602 141.825 14.0829 140.729 14.0829ZM152.508 20.155H150.953V16.0919C150.953 14.8406 150.478 14.2134 149.543 14.2134C148.623 14.2134 147.991 15.0146 147.991 15.9464V20.155H146.436V15.1016C146.436 14.476 146.421 13.8053 146.378 13.0776H147.745L147.818 14.1699H147.861C148.277 13.4137 149.127 12.9321 150.075 12.9321C151.543 12.9321 152.508 14.0679 152.508 15.9164V20.155ZM162.959 14.2584H161.25V17.6944C161.25 18.5691 161.55 19.0057 162.154 19.0057C162.429 19.0057 162.658 18.9757 162.844 18.9322L162.887 20.1265C162.586 20.2436 162.183 20.3021 161.682 20.3021C160.457 20.3021 159.725 19.6179 159.725 17.8264V14.2584H158.705V13.0791H159.725V11.7827L161.25 11.3161V13.0776H162.959V14.2584V14.2584ZM171.183 20.155H169.631V16.1219C169.631 14.8556 169.158 14.2149 168.221 14.2149C167.416 14.2149 166.666 14.7686 166.666 15.8894V20.155H165.114V9.8322H166.666V14.0829H166.698C167.187 13.3117 167.895 12.9321 168.799 12.9321C170.279 12.9321 171.183 14.0964 171.183 15.9464V20.155V20.155ZM179.608 16.9952H174.946C174.976 18.335 175.852 19.0912 177.149 19.0912C177.838 19.0912 178.473 18.9742 179.033 18.7567L179.275 19.849C178.614 20.14 177.835 20.2856 176.93 20.2856C174.743 20.2856 173.449 18.8872 173.449 16.7191C173.449 14.5495 174.775 12.9185 176.755 12.9185C178.541 12.9185 179.662 14.2584 179.662 16.2825C179.672 16.5213 179.654 16.7606 179.608 16.9952V16.9952ZM178.184 15.8744C178.184 14.7821 177.64 14.0108 176.647 14.0108C175.754 14.0108 175.049 14.7971 174.948 15.8744H178.184V15.8744Z" fill="white"/>
<defs>
<linearGradient id="paint0_linear_1_3" x1="146.685" y1="60.1593" x2="146.685" y2="-156.23" gradientUnits="userSpaceOnUse">
<stop stop-color="#1A1A1A" stop-opacity="0.1"/>
<stop offset="0.123" stop-color="#212121" stop-opacity="0.151"/>
<stop offset="0.308" stop-color="#353535" stop-opacity="0.227"/>
<stop offset="0.532" stop-color="#575757" stop-opacity="0.318"/>
<stop offset="0.783" stop-color="#858585" stop-opacity="0.421"/>
<stop offset="1" stop-color="#B3B3B3" stop-opacity="0.51"/>
</linearGradient>
</defs>
</svg>
