<svg width="560" height="108" viewBox="0 0 560 108" fill="none" xmlns="http://www.w3.org/2000/svg">
<path d="M136.072 37.3719H148.307C158.487 37.3719 164.224 43.3475 164.224 54C164.224 64.6525 158.487 70.6281 148.307 70.6281H136.072V37.3719ZM147.593 64.7465C153.565 64.7465 156.959 60.8915 156.959 54C156.959 47.1085 153.565 43.2535 147.593 43.2535H143.146V64.7465H147.593Z" fill="#171717"/>
<path d="M190.765 37.3719H197.84V70.6247H190.765V37.3719Z" fill="#171717"/>
<path d="M226.478 37.3719H235.033L243.159 57.9993H243.543L251.809 37.3719H260.22L261.176 70.6247H254.102L253.528 48.9404H253.146L245.592 67.1086H240.431L232.974 48.9404H232.595L231.925 70.6247H225.473L226.478 37.3719Z" fill="#171717"/>
<path d="M309.421 64.7465V70.6247H288.629V37.3719H309.088V43.2535H295.704V50.9636H307.225V56.7949H295.704V64.7465H309.421Z" fill="#171717"/>
<path d="M336.581 37.3719H344.039L356.418 58.1906H356.801V37.3719H363.875V70.6247H357.04L344.039 48.9404H343.656V70.6247H336.581V37.3719Z" fill="#171717"/>
<path d="M389.794 68.9372L391.418 62.9146C393.854 64.3105 397.202 65.3707 400.882 65.3707C404.037 65.3707 406.14 64.0688 406.14 61.7069C406.14 59.0093 403.321 57.8048 400.117 56.3587C395.767 54.3356 390.463 51.8293 390.463 45.9007C390.463 39.9252 395.675 36.7445 402.174 36.7445C405.615 36.7445 410.013 37.6101 412.307 38.865L410.636 44.7432C408.436 43.5387 404.853 42.6227 402.413 42.6227C399.498 42.6227 397.728 43.8272 397.728 45.9477C397.728 48.4539 400.546 49.8027 403.75 51.2958C408.1 53.272 413.357 55.5837 413.357 61.7034C413.357 67.4374 408.818 71.2455 401.122 71.2455C397.392 71.2522 392.516 70.3832 389.794 68.9372Z" fill="#171717"/>
<path d="M439.227 37.3719H446.301V70.6247H439.227V37.3719Z" fill="#171717"/>
<path d="M472.884 54.047C472.884 42.9616 478.617 36.7479 488.707 36.7479C498.982 36.7479 504.812 42.9649 504.812 54.047C504.812 65.082 498.979 71.2521 488.707 71.2521C478.621 71.2521 472.884 65.0854 472.884 54.047ZM497.498 54.047C497.498 46.867 494.391 42.9147 488.657 42.9147C483.112 42.9147 480.101 46.8636 480.101 54.047C480.101 61.18 483.112 65.082 488.657 65.082C494.394 65.0854 497.498 61.18 497.498 54.047Z" fill="#171717"/>
<path d="M531.305 37.3719H538.762L551.14 58.1906H551.524V37.3719H558.598V70.6247H551.763L538.762 48.9404H538.379V70.6247H531.305V37.3719Z" fill="#171717"/>
<path d="M53.34 107.457C24.1048 107.457 0.320221 83.4765 0.320221 54C0.320221 24.5236 24.1048 0.542786 53.34 0.542786C82.5753 0.542786 106.356 24.5236 106.356 54C106.356 65.8341 102.599 77.0475 95.4854 86.4305C85.3613 99.7914 69.9977 107.457 53.34 107.457ZM53.34 6.94007C27.6008 6.94007 6.66516 28.0529 6.66516 54C6.66516 79.947 27.6053 101.065 53.34 101.065C68.0071 101.065 81.5328 94.3183 90.4525 82.5523C96.7076 74.2929 100.015 64.4205 100.015 54C100.015 28.0484 79.0748 6.94007 53.34 6.94007Z" fill="url(#paint0_linear_6_64)"/>
<path d="M53.34 94.2232C31.3438 94.2232 13.4459 76.1776 13.4459 54C13.4459 31.8224 31.3438 13.7769 53.34 13.7769C75.3361 13.7769 93.234 31.8224 93.234 54C93.234 55.767 91.814 57.1987 90.0615 57.1987C88.3091 57.1987 86.889 55.767 86.889 54C86.889 35.3473 71.8401 20.1696 53.3354 20.1696C34.8309 20.1696 19.7819 35.3427 19.7819 54C19.7819 72.6572 34.8309 87.8304 53.3354 87.8304C55.088 87.8304 56.5079 89.2621 56.5079 91.0291C56.5079 92.7915 55.088 94.2232 53.34 94.2232Z" fill="url(#paint1_linear_6_64)"/>
<path d="M53.34 80.9892C39.0548 80.9892 27.3131 69.7304 26.6076 55.3592C26.5852 54.9107 26.5762 54.4531 26.5762 54.0045C26.5762 52.2376 27.9961 50.8059 29.7486 50.8059C31.5012 50.8059 32.9211 52.2376 32.9211 54.0045C32.9211 54.3489 32.9301 54.6978 32.9481 55.042C33.4873 66.0063 42.4475 74.5964 53.349 74.5964C59.7658 74.5964 65.6883 71.6424 69.5887 66.4956C72.3254 62.8847 73.7723 58.5624 73.7723 54.0045C73.7723 47.1542 70.4066 40.766 64.7627 36.924C61.388 34.6224 57.4381 33.4081 53.3444 33.4081C51.5919 33.4081 50.172 31.9765 50.172 30.2095C50.172 28.4426 51.5919 27.0109 53.3444 27.0109C58.7053 27.0109 63.8819 28.6057 68.3126 31.6231C75.7 36.6566 80.1128 45.0202 80.1128 54C80.1128 59.9759 78.2164 65.6393 74.6261 70.3738C69.5033 77.12 61.7474 80.9892 53.34 80.9892Z" fill="url(#paint2_linear_6_64)"/>
<path d="M53.3401 67.7551C51.5876 67.7551 50.1676 66.3234 50.1676 64.5564C50.1676 62.7895 51.5876 61.3577 53.3401 61.3577C55.4925 61.3577 57.5281 60.4063 58.9212 58.7436C60.031 57.4207 60.6422 55.7353 60.6422 53.9955C60.6422 49.936 57.3664 46.6332 53.3401 46.6332C49.3138 46.6332 46.038 49.936 46.038 53.9955C46.038 55.7624 44.618 57.1941 42.8656 57.1941C41.1131 57.1941 39.6931 55.7624 39.6931 53.9955C39.6931 46.4111 45.8134 40.2404 53.3357 40.2404C60.8579 40.2404 66.9781 46.4111 66.9781 53.9955C66.9781 57.2394 65.8367 60.3928 63.7607 62.871C61.1634 65.9745 57.3618 67.7551 53.3401 67.7551Z" fill="url(#paint3_linear_6_64)"/>
<defs>
<linearGradient id="paint0_linear_6_64" x1="-7.08014" y1="0.542573" x2="135.275" y2="1.3507" gradientUnits="userSpaceOnUse">
<stop stop-color="#BE53FF"/>
<stop offset="0.0729167" stop-color="#B24FFB"/>
<stop offset="0.9999" stop-color="#1B23C7"/>
<stop offset="1" stop-color="#1B23C7"/>
</linearGradient>
<linearGradient id="paint1_linear_6_64" x1="7.87737" y1="13.7767" x2="114.995" y2="14.3848" gradientUnits="userSpaceOnUse">
<stop stop-color="#BE53FF"/>
<stop offset="0.0729167" stop-color="#B24FFB"/>
<stop offset="0.9999" stop-color="#1B23C7"/>
<stop offset="1" stop-color="#1B23C7"/>
</linearGradient>
<linearGradient id="paint2_linear_6_64" x1="22.8398" y1="27.0108" x2="94.7138" y2="27.4188" gradientUnits="userSpaceOnUse">
<stop stop-color="#BE53FF"/>
<stop offset="0.0729167" stop-color="#B24FFB"/>
<stop offset="0.9999" stop-color="#1B23C7"/>
<stop offset="1" stop-color="#1B23C7"/>
</linearGradient>
<linearGradient id="paint3_linear_6_64" x1="37.7888" y1="40.2403" x2="74.4196" y2="40.4482" gradientUnits="userSpaceOnUse">
<stop stop-color="#BE53FF"/>
<stop offset="0.0729167" stop-color="#B24FFB"/>
<stop offset="0.9999" stop-color="#1B23C7"/>
<stop offset="1" stop-color="#1B23C7"/>
</linearGradient>
</defs>
</svg>
