<svg width="165" height="32" viewBox="0 0 165 32" fill="none" xmlns="http://www.w3.org/2000/svg">
<path d="M40.5068 11.1358H44.088C47.0674 11.1358 48.7465 12.8838 48.7465 16C48.7465 19.1162 47.0674 20.8642 44.088 20.8642H40.5068V11.1358ZM43.8786 19.1437C45.6269 19.1437 46.6203 18.016 46.6203 16C46.6203 13.984 45.6269 12.8563 43.8786 12.8563H42.5774V19.1437H43.8786Z" fill="#171717"/>
<path d="M56.5148 11.1358H58.5854V20.8632H56.5148V11.1358Z" fill="#171717"/>
<path d="M66.9672 11.1358H69.4713L71.8497 17.1699H71.9617L74.381 11.1358H76.8432L77.1227 20.8632H75.0521L74.8845 14.5199H74.7725L72.5617 19.8346H71.051L68.8684 14.5199H68.7574L68.5616 20.8632H66.6731L66.9672 11.1358Z" fill="#171717"/>
<path d="M91.2432 19.1437V20.8632H85.1579V11.1358H91.1458V12.8563H87.2285V15.1118H90.6004V16.8176H87.2285V19.1437H91.2432Z" fill="#171717"/>
<path d="M99.1926 11.1358H101.375L104.998 17.2259H105.11V11.1358H107.181V20.8632H105.181L101.375 14.5199H101.263V20.8632H99.1926V11.1358Z" fill="#171717"/>
<path d="M114.767 20.3696L115.242 18.6078C115.955 19.0161 116.935 19.3263 118.012 19.3263C118.936 19.3263 119.551 18.9454 119.551 18.2545C119.551 17.4654 118.726 17.113 117.788 16.69C116.515 16.0982 114.963 15.365 114.963 13.6307C114.963 11.8827 116.488 10.9522 118.39 10.9522C119.397 10.9522 120.685 11.2055 121.356 11.5725L120.867 13.2921C120.223 12.9397 119.174 12.6718 118.46 12.6718C117.607 12.6718 117.089 13.0242 117.089 13.6444C117.089 14.3776 117.914 14.7722 118.852 15.2089C120.125 15.787 121.664 16.4633 121.664 18.2535C121.664 19.9309 120.335 21.0448 118.083 21.0448C116.991 21.0468 115.564 20.7926 114.767 20.3696Z" fill="#171717"/>
<path d="M129.235 11.1358H131.306V20.8632H129.235V11.1358Z" fill="#171717"/>
<path d="M139.086 16.0137C139.086 12.7709 140.764 10.9532 143.717 10.9532C146.725 10.9532 148.431 12.7719 148.431 16.0137C148.431 19.2418 146.724 21.0468 143.717 21.0468C140.765 21.0468 139.086 19.2428 139.086 16.0137ZM146.29 16.0137C146.29 13.9134 145.381 12.7572 143.702 12.7572C142.08 12.7572 141.198 13.9124 141.198 16.0137C141.198 18.1004 142.08 19.2418 143.702 19.2418C145.382 19.2428 146.29 18.1004 146.29 16.0137Z" fill="#171717"/>
<path d="M156.185 11.1358H158.367L161.99 17.2259H162.102V11.1358H164.173V20.8632H162.173L158.367 14.5199H158.255V20.8632H156.185V11.1358Z" fill="#171717"/>
<path d="M16.2926 31.6379C7.73594 31.6379 0.774597 24.6228 0.774597 16C0.774597 7.37723 7.73594 0.362122 16.2926 0.362122C24.8493 0.362122 31.8093 7.37723 31.8093 16C31.8093 19.4618 30.7098 22.7421 28.6278 25.4869C25.6647 29.3954 21.168 31.6379 16.2926 31.6379ZM16.2926 2.23352C8.75916 2.23352 2.63166 8.40969 2.63166 16C2.63166 23.5903 8.76047 29.7678 16.2926 29.7678C20.5854 29.7678 24.5442 27.7944 27.1548 24.3524C28.9856 21.9363 29.9536 19.0483 29.9536 16C29.9536 8.40836 23.8247 2.23352 16.2926 2.23352Z" fill="url(#paint0_linear_52_531)"/>
<path d="M16.2926 27.7665C9.8547 27.7665 4.61627 22.4876 4.61627 16C4.61627 9.51238 9.8547 4.23349 16.2926 4.23349C22.7305 4.23349 27.9689 9.51238 27.9689 16C27.9689 16.5169 27.5533 16.9357 27.0404 16.9357C26.5275 16.9357 26.1119 16.5169 26.1119 16C26.1119 10.5435 21.7073 6.10357 16.2913 6.10357C10.8753 6.10357 6.4707 10.5422 6.4707 16C6.4707 21.4578 10.8753 25.8964 16.2913 25.8964C16.8042 25.8964 17.2198 26.3153 17.2198 26.8321C17.2198 27.3477 16.8042 27.7665 16.2926 27.7665Z" fill="url(#paint1_linear_52_531)"/>
<path d="M16.2926 23.8952C12.1116 23.8952 8.67498 20.6016 8.4685 16.3976C8.46192 16.2664 8.45929 16.1325 8.45929 16.0013C8.45929 15.4844 8.87489 15.0656 9.38782 15.0656C9.90075 15.0656 10.3163 15.4844 10.3163 16.0013C10.3163 16.1021 10.319 16.2041 10.3242 16.3048C10.4821 19.5122 13.1046 22.0251 16.2952 22.0251C18.1733 22.0251 19.9068 21.1609 21.0484 19.6553C21.8493 18.599 22.2728 17.3346 22.2728 16.0013C22.2728 13.9974 21.2877 12.1286 19.6358 11.0047C18.6481 10.3315 17.4921 9.97626 16.2939 9.97626C15.781 9.97626 15.3654 9.55745 15.3654 9.04056C15.3654 8.52367 15.781 8.10486 16.2939 8.10486C17.863 8.10486 19.3781 8.57138 20.6748 9.45407C22.837 10.9265 24.1286 13.3732 24.1286 16C24.1286 17.7482 23.5735 19.4049 22.5227 20.7898C21.0234 22.7633 18.7533 23.8952 16.2926 23.8952Z" fill="url(#paint2_linear_52_531)"/>
<path d="M16.2926 20.0238C15.7797 20.0238 15.3641 19.605 15.3641 19.0881C15.3641 18.5712 15.7797 18.1524 16.2926 18.1524C16.9226 18.1524 17.5184 17.874 17.9261 17.3876C18.2509 17.0006 18.4298 16.5076 18.4298 15.9987C18.4298 14.8111 17.471 13.845 16.2926 13.845C15.1142 13.845 14.1554 14.8111 14.1554 15.9987C14.1554 16.5156 13.7398 16.9344 13.2269 16.9344C12.7139 16.9344 12.2983 16.5156 12.2983 15.9987C12.2983 13.78 14.0896 11.9749 16.2913 11.9749C18.4929 11.9749 20.2842 13.78 20.2842 15.9987C20.2842 16.9476 19.9501 17.8701 19.3425 18.595C18.5823 19.5029 17.4697 20.0238 16.2926 20.0238Z" fill="url(#paint3_linear_52_531)"/>
<defs>
<linearGradient id="paint0_linear_52_531" x1="-1.39137" y1="0.36206" x2="40.2734" y2="0.598709" gradientUnits="userSpaceOnUse">
<stop stop-color="#BE53FF"/>
<stop offset="0.0729167" stop-color="#B24FFB"/>
<stop offset="0.9999" stop-color="#1B23C7"/>
<stop offset="1" stop-color="#E1A4FB" stop-opacity="0"/>
<stop offset="1" stop-color="#1B23C7"/>
</linearGradient>
<linearGradient id="paint1_linear_52_531" x1="2.98645" y1="4.23344" x2="34.3379" y2="4.41152" gradientUnits="userSpaceOnUse">
<stop stop-color="#BE53FF"/>
<stop offset="0.0729167" stop-color="#B24FFB"/>
<stop offset="0.9999" stop-color="#1B23C7"/>
<stop offset="1" stop-color="#E1A4FB" stop-opacity="0"/>
<stop offset="1" stop-color="#1B23C7"/>
</linearGradient>
<linearGradient id="paint2_linear_52_531" x1="7.36571" y1="8.10483" x2="28.402" y2="8.22432" gradientUnits="userSpaceOnUse">
<stop stop-color="#BE53FF"/>
<stop offset="0.0729167" stop-color="#B24FFB"/>
<stop offset="0.9999" stop-color="#1B23C7"/>
<stop offset="1" stop-color="#E1A4FB" stop-opacity="0"/>
<stop offset="1" stop-color="#1B23C7"/>
</linearGradient>
<linearGradient id="paint3_linear_52_531" x1="11.741" y1="11.9749" x2="22.4622" y2="12.0358" gradientUnits="userSpaceOnUse">
<stop stop-color="#BE53FF"/>
<stop offset="0.0729167" stop-color="#B24FFB"/>
<stop offset="0.9999" stop-color="#1B23C7"/>
<stop offset="1" stop-color="#E1A4FB" stop-opacity="0"/>
<stop offset="1" stop-color="#1B23C7"/>
</linearGradient>
</defs>
</svg>
