<svg id="Layer_1" data-name="Layer 1" xmlns="http://www.w3.org/2000/svg" viewBox="0 0 818.65 245.6"><defs><style>.cls-1,.cls-3{fill:#fff;}.cls-2{fill:#c8102e;}.cls-3{fill-rule:evenodd;}</style></defs><title>Huaweii</title><path id="Path_1" data-name="Path 1" d="M761.26,0H51.53C49.65,0,47.78,0,45.9,0A80.85,80.85,0,0,0,33.78,1.14a39.08,39.08,0,0,0-11.5,3.75,39.65,39.65,0,0,0-9.81,7.18,38.4,38.4,0,0,0-7.19,9.81A40,40,0,0,0,1.53,33.45,78.15,78.15,0,0,0,.41,45.57c0,1.81-.06,3.69-.06,5.56V194.36c0,1.88.06,3.75.06,5.63a78.15,78.15,0,0,0,1.12,12.12,40,40,0,0,0,3.75,11.56,37.75,37.75,0,0,0,7.19,9.75,38,38,0,0,0,9.81,7.13,39.92,39.92,0,0,0,11.5,3.87,87.8,87.8,0,0,0,12.12,1.06c1.88,0,3.75.07,5.63.07H767.82c1.81,0,3.75-.07,5.56-.07a86.21,86.21,0,0,0,12.12-1.06,40.26,40.26,0,0,0,11.57-3.87,38.17,38.17,0,0,0,9.81-7.13,37.95,37.95,0,0,0,10.93-21.31A79.41,79.41,0,0,0,818.94,200v-5.63c.06-2.18.06-4.37.06-6.62v-130c0-2.25,0-4.44-.06-6.63V45.57a79.41,79.41,0,0,0-1.13-12.12,39.41,39.41,0,0,0-3.75-11.57,39.73,39.73,0,0,0-17-17A39.41,39.41,0,0,0,785.5,1.14,79.41,79.41,0,0,0,773.38,0c-1.81,0-3.75-.06-5.56-.06Z" transform="translate(-0.35 0.05)"/><path id="AppGallery" class="cls-1" d="M279.19,155.74l-13.63-36.8L252,155.74Zm-47.5,27.31,28.25-74h11.31l28.25,74H289.06l-6.75-19H249l-6.74,19Zm87-8.31v29.44h-9.12V127.56h9.12v8.37a18.93,18.93,0,0,1,7.25-7.31,21.55,21.55,0,0,1,10.5-2.43,19.9,19.9,0,0,1,16.44,8.06q6.38,8,6.37,21.12t-6.37,21.12a20,20,0,0,1-16.44,8,22,22,0,0,1-10.5-2.37A19.41,19.41,0,0,1,318.68,174.74Zm31.06-19.37q0-10.06-4.18-15.81a13.09,13.09,0,0,0-11.32-5.75,13.39,13.39,0,0,0-11.43,5.75q-4.12,5.74-4.13,15.81t4.13,15.81a13.44,13.44,0,0,0,11.43,5.69,13.13,13.13,0,0,0,11.32-5.69Q349.75,165.44,349.74,155.37Zm33.44,19.37v29.44H374V127.56h9.19v8.37a19,19,0,0,1,7.18-7.31,21.68,21.68,0,0,1,10.56-2.43,19.84,19.84,0,0,1,16.38,8.06q6.38,8,6.37,21.12t-6.37,21.12a19.92,19.92,0,0,1-16.38,8,22.13,22.13,0,0,1-10.56-2.37A19.47,19.47,0,0,1,383.18,174.74Zm31-19.37q0-10.06-4.18-15.81a13.09,13.09,0,0,0-11.32-5.75,13.39,13.39,0,0,0-11.43,5.75q-4.07,5.74-4.06,15.81t4.06,15.81a13.44,13.44,0,0,0,11.43,5.69A13.13,13.13,0,0,0,410,171.18Q414.17,165.44,414.17,155.37Zm75.12,17.12V152.62H473v-8.25h26.25v31.81a44.27,44.27,0,0,1-12.82,6.25,52.09,52.09,0,0,1-14.87,2.06q-17.37,0-27.18-10.12t-9.75-28.25q0-18.12,9.75-28.25t27.18-10.18a50.25,50.25,0,0,1,13.69,1.81,43.19,43.19,0,0,1,12.06,5.25v10.69a40.08,40.08,0,0,0-11.81-7.13,36.72,36.72,0,0,0-13.13-2.37q-13.56,0-20.43,7.56t-6.75,22.62q0,15,6.75,22.56t20.43,7.56a46.94,46.94,0,0,0,9.5-.87A26.31,26.31,0,0,0,489.29,172.49Zm61.8-17.37H542q-11.06,0-15.31,2.56t-4.25,8.63a9.87,9.87,0,0,0,3.19,7.74q3.18,2.82,8.69,2.82a15.15,15.15,0,0,0,12.18-5.38q4.56-5.37,4.56-14.31Zm9.13-3.75v31.68h-9.13v-8.43a20.2,20.2,0,0,1-7.75,7.5,25.09,25.09,0,0,1-11.43,2.37q-8.5,0-13.56-4.75t-5-12.87q0-9.31,6.25-14.13T538.35,148h12.74v-.88q0-6.31-4.12-9.75t-11.62-3.44a38,38,0,0,0-9.25,1.13,35.61,35.61,0,0,0-8.69,3.44v-8.44a57.7,57.7,0,0,1,9.75-2.87,43.44,43.44,0,0,1,9.12-1q12.06,0,18,6.24T560.22,151.37ZM579,183.05V105.94h9.12v77.11Zm28.18,0V105.94h9.13v77.11ZM682.64,153v4.5H640.71q.56,9.38,5.62,14.38t14.19,4.87a40.26,40.26,0,0,0,10.12-1.25,44.66,44.66,0,0,0,9.81-3.87v8.62a56,56,0,0,1-10.06,3.19A51.05,51.05,0,0,1,660,184.49q-13.26,0-21.06-7.75t-7.75-20.87q0-13.68,7.37-21.62t19.87-8.06q11.19,0,17.69,7.24T682.64,153ZM641,150.37h32.56q-.13-7.5-4.25-12a14,14,0,0,0-10.81-4.44q-7.63,0-12.25,4.32T641,150.37Zm88.43-23.68.06,9.37a13.26,13.26,0,0,0-3.38-1.31,16.77,16.77,0,0,0-3.93-.44q-7.75,0-11.94,5.06t-4.12,14.44v29.24H697V127.56h9.13v8.62a18.57,18.57,0,0,1,7.49-7.5,23.36,23.36,0,0,1,11.19-2.49,14.43,14.43,0,0,1,2.13.18A19.68,19.68,0,0,1,729.39,126.69Zm57.11.87-24.37,60.62q-3.87,9.93-7.56,13t-9.81,3h-7.31v-7.63h5.37a8.78,8.78,0,0,0,5.88-1.81q2.06-1.76,4.56-8.44l1.69-4.12-22.5-54.62h9.68l17.38,43.37,17.31-43.37Z" transform="translate(-0.35 0.05)"/><path id="EXPLORE_IT_ON" data-name="EXPLORE IT ON" class="cls-1" d="M231.13,83.07V44.88h24.12v4.31h-19V60.51h18.18v4.37H236.26V78.69h19.49v4.38Zm43.12-20.38L262.38,44.88h5.56l9.5,14.19,9.5-14.19h5.56L280.25,63.19l13.06,19.88h-5.56L277.06,66.82,266.19,83.07h-5.56Zm37.5-13.56h-6.5V63.44h6.5a8.06,8.06,0,0,0,5.62-1.81,7.14,7.14,0,0,0,1.94-5.37A7,7,0,0,0,317.37,51,7.9,7.9,0,0,0,311.75,49.13ZM300.12,83.07V44.88h11.63q6.44,0,9.75,2.88c2.16,2,3.25,4.79,3.25,8.5s-1.09,6.64-3.25,8.56-5.46,2.87-9.75,2.87h-6.5V83.07Zm31.56,0V44.88h5.19V78.69h18.62v4.38Zm42.87-34.69a11,11,0,0,0-9,4.19Q362.31,56.76,362.3,64t3.25,11.44a11,11,0,0,0,9,4.19,10.65,10.65,0,0,0,8.88-4.19q3.3-4.25,3.31-11.44t-3.31-11.43A10.65,10.65,0,0,0,374.55,48.38Zm0-4.19q8,0,12.81,5.38T392.18,64q0,9.07-4.82,14.44t-12.81,5.38q-8.06,0-12.93-5.38T356.8,64q0-9.06,4.82-14.43T374.55,44.19Zm43.81,20.94a7.41,7.41,0,0,1,3.25,2.44,25.2,25.2,0,0,1,3.19,5.06l5.25,10.44h-5.57l-4.87-9.82a14.2,14.2,0,0,0-3.69-5.06,8.47,8.47,0,0,0-4.87-1.25h-5.63V83.07h-5.18V44.88h11.68q6.57,0,9.81,2.75t3.19,8.25a10.06,10.06,0,0,1-1.69,6A8.49,8.49,0,0,1,418.36,65.13Zm-6.44-16h-6.5V62.69h6.5q3.75,0,5.63-1.75a6.46,6.46,0,0,0,1.93-5.06,6.34,6.34,0,0,0-1.93-5.06Q415.68,49.13,411.92,49.13Zm24.75,33.94V44.88h24.12v4.31H441.86V60.51H460v4.37H441.86V78.69h19.43v4.38Zm49.74,0V44.88h5.19V83.07ZM496.6,49.19V44.88h32.31v4.31H515.35V83.07h-5.19V49.19ZM566,48.38a10.81,10.81,0,0,0-8.94,4.19q-3.3,4.18-3.31,11.43t3.31,11.44a11.63,11.63,0,0,0,17.88,0q3.24-4.25,3.25-11.44T575,52.57A10.81,10.81,0,0,0,566,48.38Zm0-4.19q8.06,0,12.87,5.38T583.72,64q0,9.07-4.82,14.44T566,83.82q-8.06,0-12.87-5.38T548.34,64q0-9.06,4.82-14.43T566,44.19Zm25.75,38.88V44.88h6.93l16.94,31.94V44.88h5.06V83.07h-7L596.78,51.13V83.07Z" transform="translate(-0.35 0.05)"/><path id="Path_5" data-name="Path 5" class="cls-2" d="M165.76,45h-68C65.71,45,54,56.69,54,88.75v68c0,32.06,11.75,43.81,43.81,43.81h68c32,0,43.75-11.75,43.75-43.81v-68C209.51,56.69,197.82,45,165.76,45Z" transform="translate(-0.35 0.05)"/><path id="Path_6" data-name="Path 6" class="cls-3" d="M120.33,138.87l-1.87,4.19h-4.19l8.94-20.31h3.62l8.94,20.31h-4.31l-1.82-4.19Zm1.5-3.69h6.25L125,127.93Zm66.24-12.43h4.13v20.31h-4.13Zm-16.18,16.62H183.2v3.69H167.83V122.75h14.93v3.75H171.89v4.12h7.5v3.75h-7.5ZM160.2,122.75h4.31l-7.06,20.37H154l-4.62-13.37-4.63,13.37h-3.37l-7.12-20.37h4.43l4.5,14,4.56-14h3.38l4.62,14Zm-52.18,0h4.13v11.5c0,5.81-3.19,9.18-8.82,9.18s-8.68-3.31-8.68-9.06V122.75h4.12v11.5c0,3.43,1.63,5.25,4.63,5.25s4.62-1.82,4.62-5.13Zm-23.25,0H88.9v20.37H84.77v-8.31H75.46v8.31H71.34V122.75h4.12v8.18h9.31Zm47-25.87A25.89,25.89,0,0,1,105.9,71h3.62A22.25,22.25,0,0,0,154,71h3.62A25.93,25.93,0,0,1,131.77,96.88Z" transform="translate(-0.35 0.05)"/></svg>