<svg width="200" height="60" viewBox="0 0 200 60" fill="none" xmlns="http://www.w3.org/2000/svg">
<path d="M192.593 60H7.40741C3.25926 60 0 56.7 0 52.5V7.5C0 3.3 3.25926 0 7.40741 0H192.593C196.741 0 200 3.3 200 7.5V52.5C200 56.7 196.741 60 192.593 60Z" fill="black"/>
<path d="M192.593 1.2C196 1.2 198.815 4.05 198.815 7.5V52.5C198.815 55.95 196 58.8 192.593 58.8H7.40741C4 58.8 1.18519 55.95 1.18519 52.5V7.5C1.18519 4.05 4 1.2 7.40741 1.2H192.593ZM192.593 0H7.40741C3.25926 0 0 3.45 0 7.5V52.5C0 56.7 3.25926 60 7.40741 60H192.593C196.741 60 200 56.7 200 52.5V7.5C200 3.45 196.741 0 192.593 0Z" fill="#A6A6A6"/>
<path d="M70.2222 15.3C70.2222 16.5 69.9259 17.55 69.1852 18.3C68.2963 19.2 67.2592 19.65 65.9259 19.65C64.5926 19.65 63.5555 19.2 62.6666 18.3C61.7778 17.4 61.3333 16.35 61.3333 15C61.3333 13.65 61.7778 12.6 62.6666 11.7C63.5555 10.8 64.5926 10.35 65.9259 10.35C66.5185 10.35 67.1111 10.5 67.7037 10.8C68.2963 11.1 68.7407 11.4 69.037 11.85L68.2963 12.6C67.7037 11.85 66.9629 11.55 65.9259 11.55C65.037 11.55 64.1481 11.85 63.5555 12.6C62.8148 13.2 62.5185 14.1 62.5185 15.15C62.5185 16.2 62.8148 17.1 63.5555 17.7C64.2963 18.3 65.037 18.75 65.9259 18.75C66.9629 18.75 67.7037 18.45 68.4444 17.7C68.8889 17.25 69.1852 16.65 69.1852 15.9H65.9259V14.7H70.2222V15.3V15.3ZM77.037 11.55H73.037V14.4H76.7407V15.45H73.037V18.3H77.037V19.5H71.8518V10.5H77.037V11.55ZM81.9259 19.5H80.7407V11.55H78.2222V10.5H84.4444V11.55H81.9259V19.5ZM88.7407 19.5V10.5H89.9259V19.5H88.7407ZM94.9629 19.5H93.7778V11.55H91.2592V10.5H97.3333V11.55H94.8148V19.5H94.9629ZM109.037 18.3C108.148 19.2 107.111 19.65 105.778 19.65C104.444 19.65 103.407 19.2 102.518 18.3C101.63 17.4 101.185 16.35 101.185 15C101.185 13.65 101.63 12.6 102.518 11.7C103.407 10.8 104.444 10.35 105.778 10.35C107.111 10.35 108.148 10.8 109.037 11.7C109.926 12.6 110.37 13.65 110.37 15C110.37 16.35 109.926 17.4 109.037 18.3ZM103.407 17.55C104 18.15 104.889 18.6 105.778 18.6C106.667 18.6 107.556 18.3 108.148 17.55C108.741 16.95 109.185 16.05 109.185 15C109.185 13.95 108.889 13.05 108.148 12.45C107.556 11.85 106.667 11.4 105.778 11.4C104.889 11.4 104 11.7 103.407 12.45C102.815 13.05 102.37 13.95 102.37 15C102.37 16.05 102.667 16.95 103.407 17.55ZM112 19.5V10.5H113.333L117.63 17.55V10.5H118.815V19.5H117.63L113.037 12.15V19.5H112V19.5Z" fill="white" stroke="white" stroke-width="0.2" stroke-miterlimit="10"/>
<path d="M100.889 32.7C97.3333 32.7 94.5185 35.4 94.5185 39.15C94.5185 42.75 97.3333 45.6 100.889 45.6C104.444 45.6 107.259 42.9 107.259 39.15C107.259 35.25 104.444 32.7 100.889 32.7ZM100.889 42.9C98.963 42.9 97.3333 41.25 97.3333 39C97.3333 36.75 98.963 35.1 100.889 35.1C102.815 35.1 104.444 36.6 104.444 39C104.444 41.25 102.815 42.9 100.889 42.9ZM87.1111 32.7C83.5556 32.7 80.7407 35.4 80.7407 39.15C80.7407 42.75 83.5556 45.6 87.1111 45.6C90.6667 45.6 93.4815 42.9 93.4815 39.15C93.4815 35.25 90.6667 32.7 87.1111 32.7ZM87.1111 42.9C85.1852 42.9 83.5556 41.25 83.5556 39C83.5556 36.75 85.1852 35.1 87.1111 35.1C89.037 35.1 90.6667 36.6 90.6667 39C90.6667 41.25 89.037 42.9 87.1111 42.9ZM70.6667 34.65V37.35H77.037C76.8889 38.85 76.2963 40.05 75.5556 40.8C74.6667 41.7 73.1852 42.75 70.6667 42.75C66.6667 42.75 63.7037 39.6 63.7037 35.55C63.7037 31.5 66.8148 28.35 70.6667 28.35C72.7407 28.35 74.3704 29.25 75.5556 30.3L77.4815 28.35C75.8518 26.85 73.7778 25.65 70.8148 25.65C65.4815 25.65 60.8889 30.15 60.8889 35.55C60.8889 40.95 65.4815 45.45 70.8148 45.45C73.7778 45.45 75.8519 44.55 77.6296 42.6C79.4074 40.8 80 38.25 80 36.3C80 35.7 80 35.1 79.8519 34.65H70.6667V34.65ZM137.926 36.75C137.333 35.25 135.852 32.7 132.593 32.7C129.333 32.7 126.667 35.25 126.667 39.15C126.667 42.75 129.333 45.6 132.889 45.6C135.704 45.6 137.481 43.8 138.074 42.75L136 41.25C135.259 42.3 134.37 43.05 132.889 43.05C131.407 43.05 130.519 42.45 129.778 41.1L138.222 37.5L137.926 36.75V36.75ZM129.333 38.85C129.333 36.45 131.259 35.1 132.593 35.1C133.63 35.1 134.667 35.7 134.963 36.45L129.333 38.85ZM122.37 45H125.185V26.25H122.37V45ZM117.926 34.05C117.185 33.3 116 32.55 114.519 32.55C111.407 32.55 108.444 35.4 108.444 39C108.444 42.6 111.259 45.3 114.519 45.3C116 45.3 117.185 44.55 117.778 43.8H117.926V44.7C117.926 47.1 116.593 48.45 114.519 48.45C112.889 48.45 111.704 47.25 111.407 46.2L109.037 47.25C109.778 48.9 111.556 51 114.667 51C117.926 51 120.593 49.05 120.593 44.4V33H117.926V34.05V34.05ZM114.667 42.9C112.741 42.9 111.111 41.25 111.111 39C111.111 36.75 112.741 35.1 114.667 35.1C116.593 35.1 118.074 36.75 118.074 39C118.074 41.25 116.593 42.9 114.667 42.9ZM150.815 26.25H144.148V45H146.963V37.95H150.815C153.926 37.95 156.889 35.7 156.889 32.1C156.889 28.5 153.926 26.25 150.815 26.25V26.25ZM150.963 35.25H146.963V28.8H150.963C153.037 28.8 154.222 30.6 154.222 31.95C154.074 33.6 152.889 35.25 150.963 35.25ZM168 32.55C165.926 32.55 163.852 33.45 163.111 35.4L165.63 36.45C166.222 35.4 167.111 35.1 168.148 35.1C169.63 35.1 170.963 36 171.111 37.5V37.65C170.667 37.35 169.481 36.9 168.296 36.9C165.63 36.9 162.963 38.4 162.963 41.1C162.963 43.65 165.185 45.3 167.556 45.3C169.481 45.3 170.37 44.4 171.111 43.5H171.259V45H173.926V37.8C173.63 34.5 171.111 32.55 168 32.55V32.55ZM167.704 42.9C166.815 42.9 165.481 42.45 165.481 41.25C165.481 39.75 167.111 39.3 168.444 39.3C169.63 39.3 170.222 39.6 170.963 39.9C170.667 41.7 169.185 42.9 167.704 42.9V42.9ZM183.259 33L180.148 41.1H180L176.741 33H173.778L178.667 44.4L175.852 50.7H178.667L186.222 33H183.259V33ZM158.37 45H161.185V26.25H158.37V45Z" fill="white"/>
<path d="M15.4074 11.25C14.963 11.7 14.8148 12.45 14.8148 13.35V46.5C14.8148 47.4 15.1111 48.15 15.5556 48.6L15.7037 48.75L34.0741 30.15V29.85L15.4074 11.25Z" fill="url(#paint0_linear_1_26)"/>
<path d="M40 36.45L33.9259 30.3V29.85L40 23.7L40.1482 23.85L47.4074 28.05C49.4815 29.25 49.4815 31.2 47.4074 32.4L40 36.45V36.45Z" fill="url(#paint1_linear_1_26)"/>
<path d="M40.1482 36.3L33.9259 30L15.4074 48.75C16.1482 49.5 17.1852 49.5 18.5185 48.9L40.1482 36.3" fill="url(#paint2_linear_1_26)"/>
<path d="M40.1482 23.7L18.5185 11.25C17.1852 10.5 16.1482 10.65 15.4074 11.4L33.9259 30L40.1482 23.7V23.7Z" fill="url(#paint3_linear_1_26)"/>
<path opacity="0.2" d="M40 36.15L18.5185 48.45C17.3333 49.2 16.2963 49.05 15.5556 48.45L15.4074 48.6L15.5556 48.75C16.2963 49.35 17.3333 49.5 18.5185 48.75L40 36.15Z" fill="black"/>
<path opacity="0.12" d="M15.4074 48.45C14.963 48 14.8148 47.25 14.8148 46.35V46.5C14.8148 47.4 15.1111 48.15 15.5556 48.6V48.45H15.4074ZM47.4074 31.95L40 36.15L40.1482 36.3L47.4074 32.1C48.4444 31.5 48.8889 30.75 48.8889 30C48.8889 30.75 48.2963 31.35 47.4074 31.95V31.95Z" fill="black"/>
<path opacity="0.25" d="M18.5185 11.4L47.4074 28.05C48.2963 28.65 48.8889 29.25 48.8889 30C48.8889 29.25 48.4444 28.5 47.4074 27.9L18.5185 11.25C16.4444 10.05 14.8148 10.95 14.8148 13.35V13.5C14.8148 11.25 16.4444 10.2 18.5185 11.4Z" fill="white"/>
<defs>
<linearGradient id="paint0_linear_1_26" x1="32.2963" y1="13.065" x2="7.12376" y2="37.9253" gradientUnits="userSpaceOnUse">
<stop stop-color="#00A0FF"/>
<stop offset="0.007" stop-color="#00A1FF"/>
<stop offset="0.26" stop-color="#00BEFF"/>
<stop offset="0.512" stop-color="#00D2FF"/>
<stop offset="0.76" stop-color="#00DFFF"/>
<stop offset="1" stop-color="#00E3FF"/>
</linearGradient>
<linearGradient id="paint1_linear_1_26" x1="50.1245" y1="30.0015" x2="14.277" y2="30.0015" gradientUnits="userSpaceOnUse">
<stop stop-color="#FFE000"/>
<stop offset="0.409" stop-color="#FFBD00"/>
<stop offset="0.775" stop-color="#FFA500"/>
<stop offset="1" stop-color="#FF9C00"/>
</linearGradient>
<linearGradient id="paint2_linear_1_26" x1="36.7807" y1="33.444" x2="2.64638" y2="67.1569" gradientUnits="userSpaceOnUse">
<stop stop-color="#FF3A44"/>
<stop offset="1" stop-color="#C31162"/>
</linearGradient>
<linearGradient id="paint3_linear_1_26" x1="10.8104" y1="0.264032" x2="26.0537" y2="15.3192" gradientUnits="userSpaceOnUse">
<stop stop-color="#32A071"/>
<stop offset="0.069" stop-color="#2DA771"/>
<stop offset="0.476" stop-color="#15CF74"/>
<stop offset="0.801" stop-color="#06E775"/>
<stop offset="1" stop-color="#00F076"/>
</linearGradient>
</defs>
</svg>
