<svg width="145" height="40" viewBox="0 0 145 40" fill="none" xmlns="http://www.w3.org/2000/svg">
<path d="M144.038 35.2777C144.038 35.7811 143.932 36.2796 143.724 36.7447C143.517 37.2098 143.214 37.6323 142.831 37.9881C142.448 38.3439 141.994 38.626 141.494 38.8183C140.995 39.0106 140.459 39.1093 139.918 39.1088H5.08205C3.9892 39.1098 2.94064 38.7068 2.16697 37.9884C1.3933 37.27 0.957876 36.2949 0.956451 35.2777V4.7263C0.957875 3.70863 1.39313 2.73308 2.16664 2.01385C2.94016 1.29462 3.98871 0.890508 5.08205 0.890244H139.917C140.458 0.890244 140.994 0.989473 141.494 1.18227C141.994 1.37506 142.448 1.65764 142.831 2.01386C143.213 2.37008 143.517 2.79297 143.724 3.25838C143.931 3.72379 144.037 4.22259 144.037 4.7263L144.038 35.2777Z" fill="white"/>
<path d="M139.918 40H5.08204C3.73578 39.9997 2.44461 39.5024 1.49185 38.6171C0.539086 37.7318 0.00256158 36.5308 0 35.2777L0 4.7273C0.00199161 3.47359 0.538162 2.27181 1.49089 1.38558C2.44362 0.499356 3.73511 0.00105818 5.08204 0L139.917 0C141.264 0.00158618 142.555 0.500054 143.507 1.38616C144.46 2.27228 144.996 3.47375 144.999 4.7273V35.2777C145.001 37.8824 142.717 40 139.918 40V40Z" fill="#A6A6A6"/>
<path d="M144.038 35.2777C144.038 35.7811 143.932 36.2796 143.724 36.7447C143.517 37.2098 143.214 37.6323 142.831 37.9881C142.448 38.3439 141.994 38.626 141.494 38.8183C140.995 39.0106 140.459 39.1093 139.918 39.1088H5.08205C3.9892 39.1098 2.94064 38.7068 2.16697 37.9884C1.3933 37.27 0.957876 36.2949 0.956451 35.2777V4.7263C0.957875 3.70863 1.39313 2.73308 2.16664 2.01385C2.94016 1.29462 3.98871 0.890508 5.08205 0.890244H139.917C140.458 0.890244 140.994 0.989473 141.494 1.18227C141.994 1.37506 142.448 1.65764 142.831 2.01386C143.213 2.37008 143.517 2.79297 143.724 3.25838C143.931 3.72379 144.037 4.22259 144.037 4.7263L144.038 35.2777Z" fill="black"/>
<path d="M32.3772 19.7894C32.346 16.5656 35.2132 14.9971 35.3443 14.9241C33.7205 12.7205 31.2037 12.4194 30.3192 12.3954C28.2054 12.1883 26.155 13.5727 25.0782 13.5727C23.9799 13.5727 22.3217 12.4154 20.5345 12.4494C18.2347 12.4824 16.0833 13.7218 14.9033 15.6463C12.4682 19.5704 14.2843 25.337 16.6174 28.5088C17.7845 30.0633 19.1482 31.7967 20.9332 31.7357C22.6795 31.6697 23.3318 30.7004 25.4392 30.7004C27.5273 30.7004 28.1398 31.7357 29.9603 31.6967C31.8345 31.6697 33.0145 30.1363 34.1407 28.5689C35.4894 26.7894 36.031 25.0349 36.0525 24.9449C36.0095 24.9309 32.4138 23.6525 32.3772 19.7894V19.7894ZM28.9383 10.3088C29.8776 9.21553 30.5202 7.72812 30.3418 6.2187C28.9824 6.27472 27.2823 7.09395 26.3033 8.16324C25.4371 9.1055 24.6633 10.6499 24.8632 12.1023C26.3903 12.2084 27.9582 11.3851 28.9383 10.3088V10.3088Z" fill="white"/>
<path d="M139.918 0H67.6958L95.9839 40H139.918C141.265 39.9989 142.556 39.5009 143.508 38.6151C144.461 37.7293 144.997 36.5281 145 35.2747V4.7273C144.998 3.47367 144.461 2.27204 143.509 1.38587C142.556 0.499705 141.265 0.00132228 139.918 0V0Z" fill="url(#paint0_linear_1_3)"/>
<path d="M57.6713 31.5127H55.2308L53.8939 27.6026H49.2471L47.9737 31.5127H45.5976L50.2025 18.201H53.046L57.6713 31.5127V31.5127ZM53.4909 25.9621L52.282 22.4862C52.1541 22.1311 51.9133 21.2948 51.5609 19.9785H51.5179C51.376 20.5446 51.1493 21.3809 50.8387 22.4862L49.6501 25.9621H53.4909ZM69.4904 26.5953C69.4904 28.2277 69.0143 29.5181 68.0611 30.4654C67.2078 31.3086 66.1472 31.7297 64.8823 31.7297C63.5164 31.7297 62.5342 31.2766 61.9377 30.3683V35.4047H59.6466V25.0689C59.6466 24.0436 59.6175 22.9923 59.5617 21.914H61.5766L61.7045 23.4354H61.7475C62.5116 22.2891 63.6711 21.716 65.2272 21.716C66.4438 21.716 67.4593 22.1631 68.2717 23.0583C69.0831 23.9556 69.4904 25.1339 69.4904 26.5953ZM67.1563 26.6733C67.1563 25.7391 66.9306 24.9689 66.4771 24.3617C65.9817 23.7305 65.3164 23.4144 64.4825 23.4144C63.9172 23.4144 63.4036 23.5905 62.9447 23.9376C62.4847 24.2877 62.1838 24.7448 62.043 25.3109C61.9802 25.5227 61.9445 25.7406 61.9367 25.9601V27.5616C61.9367 28.2588 62.1666 28.8479 62.6266 29.3301C63.0865 29.8102 63.684 30.0512 64.4191 30.0512C65.2821 30.0512 65.9537 29.7402 66.4341 29.123C66.9155 28.5038 67.1563 27.6876 67.1563 26.6733V26.6733ZM81.3514 26.5953C81.3514 28.2277 80.8753 29.5181 79.9221 30.4654C79.0677 31.3086 78.0081 31.7297 76.7422 31.7297C75.3763 31.7297 74.3941 31.2766 73.7976 30.3683V35.4047H71.5065V25.0689C71.5065 24.0436 71.4774 22.9923 71.4216 21.914H73.4365L73.5644 23.4354H73.6074C74.3704 22.2891 75.53 21.716 77.0871 21.716C78.3026 21.716 79.3181 22.1631 80.1327 23.0583C80.943 23.9556 81.3514 25.1339 81.3514 26.5953V26.5953ZM79.0161 26.6733C79.0161 25.7391 78.7894 24.9689 78.3359 24.3617C77.8405 23.7305 77.1774 23.4144 76.3435 23.4144C75.7782 23.4144 75.2645 23.5905 74.8035 23.9376C74.3435 24.2877 74.0437 24.7448 73.9029 25.3109C73.8331 25.575 73.7955 25.7901 73.7955 25.9601V27.5616C73.7955 28.2588 74.0265 28.8479 74.4843 29.3301C74.9443 29.8092 75.5418 30.0512 76.279 30.0512C77.143 30.0512 77.8147 29.7402 78.294 29.123C78.7754 28.5038 79.0161 27.6876 79.0161 26.6733V26.6733ZM94.6126 27.7786C94.6126 28.9119 94.1871 29.8332 93.3413 30.5444C92.4107 31.3206 91.1114 31.7097 89.4457 31.7097C87.9068 31.7097 86.6731 31.4336 85.7424 30.8805L86.2722 29.103C87.277 29.6571 88.3807 29.9332 89.5822 29.9332C90.4462 29.9332 91.1178 29.7512 91.5971 29.3901C92.0775 29.028 92.3204 28.5438 92.3204 27.9397C92.3204 27.3985 92.1194 26.9454 91.725 26.5763C91.3285 26.2082 90.6729 25.8651 89.752 25.55C87.248 24.6808 85.995 23.4094 85.995 21.737C85.995 20.6447 86.4377 19.7504 87.3211 19.0512C88.2044 18.353 89.3758 18.0039 90.8331 18.0039C92.1345 18.0039 93.2188 18.215 94.0796 18.6361L93.5047 20.3746C92.6944 19.9665 91.7798 19.7624 90.7568 19.7624C89.9486 19.7624 89.3146 19.9475 88.8611 20.3156C88.4796 20.6447 88.2861 21.0458 88.2861 21.5219C88.2861 22.047 88.5064 22.4832 88.9449 22.8253C89.3253 23.1403 90.0195 23.4834 91.0233 23.8515C92.2548 24.3137 93.1597 24.8518 93.7389 25.47C94.3225 26.0882 94.6126 26.8594 94.6126 27.7786ZM102.207 23.5145H99.6818V28.1747C99.6818 29.3601 100.127 29.9512 101.019 29.9512C101.428 29.9512 101.768 29.9192 102.036 29.8522L102.1 31.4716C101.648 31.6287 101.054 31.7077 100.318 31.7077C99.4131 31.7077 98.706 31.4506 98.1955 30.9365C97.6872 30.4224 97.4314 29.5611 97.4314 28.3488V23.5105H95.9269V21.91H97.4314V20.1525L99.6818 19.5204V21.91H102.207V23.5145V23.5145ZM113.579 26.6343C113.579 28.1097 113.126 29.321 112.221 30.2683C111.274 31.2436 110.015 31.7297 108.445 31.7297C106.929 31.7297 105.725 31.2626 104.826 30.3293C103.928 29.3941 103.479 28.2157 103.479 26.7944C103.479 25.3069 103.943 24.0886 104.868 23.1413C105.795 22.1931 107.044 21.719 108.614 21.719C110.127 21.719 111.343 22.1871 112.263 23.1213C113.142 24.0276 113.579 25.1979 113.579 26.6343ZM111.204 26.6833C111.204 25.8041 111 25.0499 110.591 24.4187C110.11 23.6565 109.422 23.2754 108.532 23.2754C107.614 23.2754 106.91 23.6565 106.431 24.4187C106.02 25.0499 105.816 25.8171 105.816 26.7233C105.816 27.6036 106.02 28.3598 106.431 28.989C106.926 29.7512 107.617 30.1323 108.512 30.1323C109.388 30.1323 110.075 29.7432 110.571 28.97C110.993 28.3238 111.204 27.5646 111.204 26.6833ZM121.03 23.7895C120.791 23.7495 120.55 23.7297 120.308 23.7305C119.502 23.7305 118.878 24.0126 118.44 24.5807C118.059 25.0809 117.868 25.7131 117.868 26.4763V31.5127H115.577V24.9368C115.579 23.9292 115.557 22.9217 115.51 21.915H117.506L117.59 23.7515H117.653C117.896 23.1203 118.277 22.6112 118.799 22.2301C119.277 21.8971 119.858 21.7167 120.455 21.716C120.667 21.716 120.858 21.73 121.028 21.755L121.03 23.7895V23.7895ZM131.277 26.2592C131.282 26.5834 131.254 26.9073 131.193 27.2265H124.319C124.345 28.1747 124.678 28.9009 125.317 29.4011C125.896 29.8472 126.645 30.0713 127.565 30.0713C128.582 30.0713 129.511 29.9212 130.346 29.6181L130.705 31.0975C129.729 31.4936 128.577 31.6907 127.248 31.6907C125.649 31.6907 124.393 31.2526 123.48 30.3783C122.569 29.5031 122.112 28.3268 122.112 26.8534C122.112 25.407 122.536 24.2016 123.387 23.2404C124.276 22.2141 125.479 21.701 126.992 21.701C128.478 21.701 129.603 22.2141 130.367 23.2404C130.972 24.0536 131.277 25.0619 131.277 26.2592V26.2592ZM129.092 25.7061C129.108 25.0729 128.958 24.5277 128.647 24.0666C128.25 23.4724 127.64 23.1764 126.822 23.1764C126.073 23.1764 125.463 23.4654 124.998 24.0456C124.617 24.5067 124.39 25.0609 124.32 25.7041L129.092 25.7061Z" fill="white"/>
<path d="M48.5862 13.4947C47.949 13.4947 47.3977 13.4657 46.9388 13.4167V6.98091C47.5806 6.88863 48.2291 6.84315 48.8785 6.84487C51.5061 6.84487 52.7161 8.04821 52.7161 10.0097C52.7161 12.2724 51.2868 13.4947 48.5862 13.4947ZM48.971 7.6701C48.6163 7.6701 48.3143 7.69011 48.0639 7.73812V12.6305C48.1993 12.6505 48.4594 12.6595 48.8248 12.6595C50.5464 12.6595 51.5265 11.7472 51.5265 10.0388C51.5265 8.51533 50.6399 7.6701 48.971 7.6701V7.6701ZM56.4871 13.5437C55.0062 13.5437 54.0465 12.5144 54.0465 11.117C54.0465 9.66065 55.0266 8.62236 56.5709 8.62236C58.0303 8.62236 59.0115 9.60263 59.0115 11.04C59.0115 12.5144 58.0002 13.5437 56.4871 13.5437ZM56.5301 9.38857C55.7166 9.38857 55.1954 10.0968 55.1954 11.087C55.1954 12.0583 55.7273 12.7665 56.5193 12.7665C57.3114 12.7665 57.8433 12.0093 57.8433 11.067C57.8433 10.1068 57.3221 9.38857 56.5301 9.38857ZM67.4561 8.71939L65.871 13.4367H64.8382L64.1816 11.3881C64.0184 10.887 63.8824 10.3786 63.7743 9.86471H63.7528C63.6701 10.3788 63.5132 10.894 63.3466 11.3881L62.6481 13.4367H61.6046L60.113 8.71939H61.2704L61.8442 10.962C61.9797 11.4962 62.0936 12.0003 62.1881 12.4764H62.2096C62.2924 12.0793 62.4278 11.5832 62.6266 10.972L63.3466 8.72039H64.2644L64.9532 10.924C65.1198 11.4581 65.2552 11.9823 65.3605 12.4774H65.3906C65.4637 11.9923 65.5787 11.4771 65.7345 10.924L66.3503 8.72039L67.4561 8.71939V8.71939ZM73.2915 13.4367H72.1652V10.7279C72.1652 9.89371 71.8213 9.4756 71.1432 9.4756C70.4759 9.4756 70.017 10.0097 70.017 10.6309V13.4367H68.8908V10.0678C68.8908 9.65065 68.88 9.20352 68.8489 8.71839H69.8397L69.8923 9.44659H69.9235C70.2266 8.94245 70.8413 8.62236 71.5301 8.62236C72.594 8.62236 73.2925 9.37957 73.2925 10.6119L73.2915 13.4367V13.4367ZM76.3972 13.4367H75.2699V6.55479H76.3972V13.4367ZM80.5035 13.5437C79.0237 13.5437 78.0629 12.5144 78.0629 11.117C78.0629 9.66065 79.043 8.62236 80.5862 8.62236C82.0467 8.62236 83.0268 9.60263 83.0268 11.04C83.0279 12.5144 82.0155 13.5437 80.5035 13.5437ZM80.5454 9.38857C79.7319 9.38857 79.2107 10.0968 79.2107 11.087C79.2107 12.0583 79.7437 12.7665 80.5336 12.7665C81.3267 12.7665 81.8575 12.0093 81.8575 11.067C81.8586 10.1068 81.3385 9.38857 80.5454 9.38857V9.38857ZM87.4672 13.4367L87.3856 12.8935H87.3555C87.0116 13.3307 86.5097 13.5437 85.8735 13.5437C84.9655 13.5437 84.3207 12.9516 84.3207 12.1553C84.3207 10.991 85.405 10.3888 87.2824 10.3888V10.3018C87.2824 9.68065 86.9288 9.36957 86.2303 9.36957C85.7306 9.36957 85.2922 9.4866 84.9064 9.71966L84.6774 9.03048C85.146 8.7584 85.7306 8.62236 86.4173 8.62236C87.7413 8.62236 88.4097 9.27254 88.4097 10.5739V12.3114C88.4097 12.7875 88.4323 13.1566 88.4828 13.4377L87.4672 13.4367V13.4367ZM87.3125 11.087C86.0616 11.087 85.434 11.3691 85.434 12.0383C85.434 12.5334 85.7575 12.7755 86.2067 12.7755C86.7795 12.7755 87.3125 12.3684 87.3125 11.8152V11.087V11.087ZM93.8786 13.4367L93.826 12.6795H93.7948C93.4713 13.2516 92.9276 13.5437 92.1678 13.5437C90.9459 13.5437 90.0411 12.5434 90.0411 11.1361C90.0411 9.66065 90.9792 8.62136 92.2602 8.62136C92.9383 8.62136 93.4187 8.83442 93.6895 9.26254H93.7121V6.55479H94.8394V12.1653C94.8394 12.6215 94.8512 13.0486 94.8813 13.4367H93.8786ZM93.7121 10.6609C93.7121 10.0007 93.2424 9.43759 92.5257 9.43759C91.6906 9.43759 91.1802 10.1268 91.1802 11.097C91.1802 12.0483 91.71 12.6995 92.5031 12.6995C93.2113 12.6995 93.7121 12.1263 93.7121 11.4471V10.6609ZM101.987 13.5437C100.507 13.5437 99.5475 12.5144 99.5475 11.117C99.5475 9.66065 100.528 8.62236 102.071 8.62236C103.531 8.62236 104.511 9.60263 104.511 11.04C104.512 12.5144 103.501 13.5437 101.987 13.5437ZM102.029 9.38857C101.216 9.38857 100.695 10.0968 100.695 11.087C100.695 12.0583 101.227 12.7665 102.018 12.7665C102.811 12.7665 103.342 12.0093 103.342 11.067C103.344 10.1068 102.823 9.38857 102.029 9.38857ZM110.568 13.4367H109.441V10.7279C109.441 9.89371 109.097 9.4756 108.419 9.4756C107.751 9.4756 107.294 10.0097 107.294 10.6309V13.4367H106.166V10.0678C106.166 9.65065 106.156 9.20352 106.124 8.71839H107.115L107.168 9.44659H107.199C107.501 8.94245 108.117 8.62136 108.805 8.62136C109.868 8.62136 110.568 9.37857 110.568 10.6109V13.4367ZM118.145 9.50561H116.906V11.7962C116.906 12.3794 117.123 12.6705 117.562 12.6705C117.761 12.6705 117.927 12.6505 118.062 12.6215L118.093 13.4177C117.875 13.4957 117.582 13.5347 117.219 13.5347C116.331 13.5347 115.801 13.0786 115.801 11.8843V9.50561H115.061V8.71939H115.801V7.85515L116.906 7.54407V8.71839H118.145V9.50561V9.50561ZM124.108 13.4367H122.982V10.7479C122.982 9.90372 122.64 9.4766 121.96 9.4766C121.377 9.4766 120.833 9.8457 120.833 10.5929V13.4367H119.708V6.55479H120.833V9.38857H120.856C121.21 8.87443 121.724 8.62136 122.38 8.62136C123.452 8.62136 124.108 9.39758 124.108 10.6309V13.4367V13.4367ZM130.216 11.3301H126.836C126.858 12.2234 127.493 12.7275 128.433 12.7275C128.933 12.7275 129.393 12.6495 129.799 12.5044L129.974 13.2326C129.495 13.4267 128.931 13.5237 128.274 13.5237C126.689 13.5237 125.751 12.5915 125.751 11.1461C125.751 9.69966 126.712 8.61236 128.147 8.61236C129.442 8.61236 130.255 9.50561 130.255 10.855C130.262 11.0142 130.249 11.1737 130.216 11.3301V11.3301ZM129.183 10.5829C129.183 9.8547 128.789 9.34056 128.069 9.34056C127.422 9.34056 126.91 9.8647 126.837 10.5829H129.183V10.5829Z" fill="white"/>
<defs>
<linearGradient id="paint0_linear_1_3" x1="106.347" y1="40.1062" x2="106.347" y2="-104.153" gradientUnits="userSpaceOnUse">
<stop stop-color="#1A1A1A" stop-opacity="0.1"/>
<stop offset="0.123" stop-color="#212121" stop-opacity="0.151"/>
<stop offset="0.308" stop-color="#353535" stop-opacity="0.227"/>
<stop offset="0.532" stop-color="#575757" stop-opacity="0.318"/>
<stop offset="0.783" stop-color="#858585" stop-opacity="0.421"/>
<stop offset="1" stop-color="#B3B3B3" stop-opacity="0.51"/>
</linearGradient>
</defs>
</svg>
